<svg width="101" height="16" viewBox="0 0 101 16" fill="none" xmlns="http://www.w3.org/2000/svg">
<path d="M100.354 8.35355C100.549 8.15829 100.549 7.84171 100.354 7.64645L97.1716 4.46447C96.9763 4.2692 96.6597 4.2692 96.4645 4.46447C96.2692 4.65973 96.2692 4.97631 96.4645 5.17157L99.2929 8L96.4645 10.8284C96.2692 11.0237 96.2692 11.3403 96.4645 11.5355C96.6597 11.7308 96.9763 11.7308 97.1716 11.5355L100.354 8.35355ZM0 8.5H1V7.5H0V8.5ZM4 8.5H6V7.5H4V8.5ZM9 8.5H11V7.5H9V8.5ZM14 8.5H16V7.5H14V8.5ZM19 8.5H21V7.5H19V8.5ZM24 8.5H26V7.5H24V8.5ZM29 8.5H31V7.5H29V8.5ZM34 8.5H36V7.5H34V8.5ZM39 8.5H41V7.5H39V8.5ZM44 8.5H46V7.5H44V8.5ZM49 8.5H51V7.5H49V8.5ZM54 8.5H56V7.5H54V8.5ZM59 8.5H61V7.5H59V8.5ZM64 8.5H66V7.5H64V8.5ZM69 8.5H71V7.5H69V8.5ZM74 8.5H76V7.5H74V8.5ZM79 8.5H81V7.5H79V8.5ZM84 8.5H86V7.5H84V8.5ZM89 8.5H91V7.5H89V8.5ZM94 8.5H96V7.5H94V8.5ZM99 8.5H100V7.5H99V8.5ZM100.707 8.70711C101.098 8.31658 101.098 7.68342 100.707 7.29289L94.3431 0.928932C93.9526 0.538408 93.3195 0.538408 92.9289 0.928932C92.5384 1.31946 92.5384 1.95262 92.9289 2.34315L98.5858 8L92.9289 13.6569C92.5384 14.0474 92.5384 14.6805 92.9289 15.0711C93.3195 15.4616 93.9526 15.4616 94.3431 15.0711L100.707 8.70711ZM0 9H1V7H0V9ZM4 9H6V7H4V9ZM9 9H11V7H9V9ZM14 9H16V7H14V9ZM19 9H21V7H19V9ZM24 9H26V7H24V9ZM29 9H31V7H29V9ZM34 9H36V7H34V9ZM39 9H41V7H39V9ZM44 9H46V7H44V9ZM49 9H51V7H49V9ZM54 9H56V7H54V9ZM59 9H61V7H59V9ZM64 9H66V7H64V9ZM69 9H71V7H69V9ZM74 9H76V7H74V9ZM79 9H81V7H79V9ZM84 9H86V7H84V9ZM89 9H91V7H89V9ZM94 9H96V7H94V9ZM99 9H100V7H99V9Z" fill="white"/>
</svg>
