<svg width="28" height="106" viewBox="0 0 28 106" fill="none" xmlns="http://www.w3.org/2000/svg">
<path d="M0.781548 101.45C0.533156 101.329 0.429598 101.03 0.550246 100.782L2.51631 96.7338C2.63696 96.4854 2.93613 96.3818 3.18452 96.5025C3.43291 96.6231 3.53647 96.9223 3.41582 97.1707L1.66821 100.769L5.26624 102.516C5.51463 102.637 5.61819 102.936 5.49754 103.185C5.37689 103.433 5.07773 103.536 4.82933 103.416L0.781548 101.45ZM1 1C1.16356 0.527507 1.16359 0.52752 1.16363 0.527533C1.16364 0.527538 1.16368 0.527551 1.16371 0.527561C1.16377 0.52758 1.16383 0.527602 1.1639 0.527625C1.16403 0.527671 1.16418 0.527724 1.16435 0.527784C1.1647 0.527904 1.16512 0.528051 1.16562 0.528226C1.16662 0.528575 1.16794 0.529035 1.16956 0.529606C1.17281 0.530747 1.1773 0.532333 1.183 0.534371C1.19442 0.538447 1.21073 0.54433 1.23178 0.552081C1.27389 0.567581 1.33499 0.590551 1.41398 0.621465C1.57194 0.68329 1.80145 0.776903 2.09356 0.906099L1.68907 1.82064C1.41073 1.69754 1.19459 1.60946 1.0495 1.55268C0.976965 1.52429 0.9222 1.50372 0.886317 1.49051C0.868376 1.48391 0.855157 1.47914 0.846799 1.47616C0.842619 1.47467 0.839655 1.47362 0.837924 1.47301C0.837058 1.47271 0.836501 1.47251 0.836253 1.47243C0.83613 1.47238 0.836084 1.47237 0.836115 1.47238C0.836131 1.47238 0.836167 1.4724 0.836222 1.47242C0.836249 1.47243 0.836281 1.47244 0.836319 1.47245C0.836337 1.47246 0.836369 1.47247 0.836378 1.47247C0.836411 1.47248 0.836445 1.47249 1 1ZM4.7582 2.27142C5.28279 2.57392 5.85158 2.92098 6.45534 3.31652L5.90735 4.153C5.32009 3.76828 4.7675 3.43113 4.25867 3.13772L4.7582 2.27142ZM8.87553 5.0424C9.37754 5.43044 9.89245 5.84783 10.4165 6.29616L9.76641 7.05603C9.25527 6.61874 8.75323 6.21178 8.26396 5.8336L8.87553 5.0424ZM12.6033 8.3084C13.0604 8.76027 13.5204 9.23568 13.9809 9.73561L13.2455 10.4132C12.7956 9.92491 12.3465 9.4607 11.9003 9.01958L12.6033 8.3084ZM15.9192 11.9903C16.3234 12.4941 16.7256 13.0181 17.1242 13.5629L16.3172 14.1534C15.9274 13.6207 15.5342 13.1085 15.1392 12.616L15.9192 11.9903ZM18.7981 16.0144C19.1456 16.5602 19.4884 17.1237 19.8253 17.7053L18.96 18.2066C18.6301 17.6371 18.2946 17.0856 17.9545 16.5514L18.7981 16.0144ZM21.2363 20.3226C21.5258 20.9007 21.8091 21.4945 22.0853 22.1041L21.1744 22.5168C20.9036 21.919 20.6259 21.3369 20.3421 20.7703L21.2363 20.3226ZM23.2338 24.8432C23.4671 25.4461 23.6934 26.0628 23.9119 26.6937L22.967 27.0211C22.7523 26.4014 22.5302 25.7958 22.3012 25.204L23.2338 24.8432ZM24.8094 29.5187C24.9899 30.1414 25.1631 30.7765 25.3282 31.4243L24.3592 31.6714C24.1967 31.0341 24.0265 30.4094 23.8489 29.7972L24.8094 29.5187ZM25.9923 34.3096C26.1241 34.9491 26.2483 35.6 26.3645 36.2623L25.3796 36.4351C25.2651 35.7824 25.1427 35.1413 25.0129 34.5115L25.9923 34.3096ZM26.8136 39.1823C26.8984 39.8207 26.9758 40.469 27.0457 41.1274L26.0513 41.2329C25.9823 40.5832 25.9059 39.9436 25.8223 39.3139L26.8136 39.1823ZM27.3021 44.0738C27.3466 44.7251 27.3839 45.3855 27.4137 46.0552L26.4146 46.0996C26.3852 45.4377 26.3484 44.7853 26.3044 44.142L27.3021 44.0738ZM27.4945 48.9976C27.4982 49.3296 27.5 49.6637 27.5 50H26.5C26.5 49.6673 26.4982 49.3369 26.4946 49.0086L27.4945 48.9976ZM27.5 50C27.5 50.3466 27.4982 50.6909 27.4947 51.0331L26.4948 51.0229C26.4983 50.6841 26.5 50.3432 26.5 50H27.5ZM27.4169 54.0629C27.3882 54.7539 27.3522 55.4353 27.3092 56.1073L26.3113 56.0434C26.3537 55.379 26.3893 54.705 26.4177 54.0214L27.4169 54.0629ZM27.062 59.1434C26.9948 59.8206 26.9202 60.4875 26.8386 61.1444L25.8462 61.0212C25.9268 60.3725 26.0005 59.7137 26.0669 59.0445L27.062 59.1434ZM26.404 64.163C26.2917 64.8466 26.1716 65.5185 26.0441 66.1787L25.0622 65.9891C25.1879 65.3381 25.3064 64.6754 25.4172 64.0008L26.404 64.163ZM25.4009 69.1601C25.2411 69.8286 25.0736 70.484 24.8988 71.1268L23.9339 70.8644C24.1059 70.2316 24.2709 69.5861 24.4283 68.9276L25.4009 69.1601ZM24.0263 74.0539C23.814 74.7067 23.5941 75.345 23.3673 75.9691L22.4274 75.6275C22.6503 75.0142 22.8665 74.3867 23.0753 73.7446L24.0263 74.0539ZM22.2442 78.8184C21.9742 79.452 21.6972 80.069 21.4138 80.67L20.5093 80.2435C20.7873 79.654 21.0592 79.0483 21.3243 78.4263L22.2442 78.8184ZM20.0238 83.4057C19.6917 84.0132 19.3537 84.6019 19.0107 85.1722L18.1538 84.6568C18.4897 84.0983 18.8209 83.5215 19.1463 82.9261L20.0238 83.4057ZM17.3473 87.7474C16.9507 88.3196 16.5502 88.8699 16.1474 89.399L15.3518 88.7932C15.7456 88.2759 16.1373 87.7376 16.5254 87.1778L17.3473 87.7474ZM14.2134 91.7661C13.7506 92.294 13.2879 92.7957 12.8278 93.2724L12.1083 92.5779C12.5575 92.1125 13.0094 91.6225 13.4615 91.1068L14.2134 91.7661ZM10.6229 95.3944C10.0907 95.8697 9.56723 96.3117 9.05652 96.7222L8.43002 95.9427C8.92759 95.5428 9.43781 95.112 9.95687 94.6485L10.6229 95.3944ZM6.58942 98.5461C5.9736 98.963 5.39287 99.3281 4.85675 99.6459L4.34685 98.7857C4.86644 98.4777 5.43023 98.1233 6.02885 97.718L6.58942 98.5461ZM2.12314 101.078C1.82215 101.213 1.58544 101.311 1.4224 101.375C1.34088 101.407 1.27777 101.431 1.23424 101.447C1.21248 101.455 1.1956 101.461 1.18378 101.465C1.17786 101.467 1.17321 101.469 1.16983 101.47C1.16814 101.471 1.16677 101.471 1.16573 101.472C1.1652 101.472 1.16476 101.472 1.1644 101.472C1.16422 101.472 1.16406 101.472 1.16392 101.472C1.16385 101.472 1.16378 101.472 1.16372 101.472C1.16369 101.472 1.16365 101.472 1.16363 101.472C1.16359 101.472 1.16356 101.472 1 101C0.836445 100.528 0.836408 100.528 0.836373 100.528C0.836363 100.528 0.83633 100.528 0.83631 100.528C0.83627 100.528 0.836235 100.528 0.836205 100.528C0.836145 100.528 0.836105 100.528 0.836085 100.528C0.836046 100.528 0.836087 100.528 0.836208 100.528C0.83645 100.528 0.837012 100.527 0.837892 100.527C0.839652 100.526 0.842683 100.525 0.846967 100.524C0.855535 100.521 0.869115 100.516 0.887562 100.509C0.924456 100.495 0.980812 100.474 1.05547 100.445C1.20479 100.386 1.42727 100.294 1.71363 100.166L2.12314 101.078ZM0.563096 101.9C0.0663114 101.658 -0.140804 101.06 0.100492 100.563L4.03263 92.4675C4.27392 91.9707 4.87226 91.7636 5.36904 92.0049C5.86582 92.2462 6.07294 92.8445 5.83164 93.3413L2.33641 100.537L9.53248 104.033C10.0293 104.274 10.2364 104.872 9.99508 105.369C9.75379 105.866 9.15545 106.073 8.65867 105.832L0.563096 101.9ZM1 1C1.32711 0.055014 1.32718 0.0550388 1.32726 0.055064C1.32728 0.055073 1.32736 0.0550987 1.32741 0.0551166C1.32751 0.0551525 1.32762 0.0551902 1.32773 0.0552296C1.32796 0.0553083 1.32821 0.0553941 1.32847 0.0554866C1.32901 0.0556718 1.32962 0.0558845 1.33031 0.0561251C1.33169 0.0566061 1.33338 0.0571982 1.33538 0.0579022C1.33939 0.0593101 1.34463 0.0611658 1.35111 0.0634766C1.36405 0.0680982 1.3819 0.074541 1.40451 0.0828644C1.44973 0.0995108 1.514 0.123683 1.59621 0.155858C1.76061 0.220204 1.99681 0.316585 2.2958 0.448828L1.48682 2.27791C1.21537 2.15785 1.00591 2.07255 0.867268 2.01829C0.797952 1.99116 0.746356 1.97179 0.713586 1.95973C0.697201 1.9537 0.685525 1.94949 0.678696 1.94705C0.675281 1.94583 0.673079 1.94506 0.672105 1.94472C0.671618 1.94454 0.671439 1.94448 0.671569 1.94453C0.671634 1.94455 0.671776 1.9446 0.671996 1.94468C0.672106 1.94471 0.672236 1.94476 0.672384 1.94481C0.672459 1.94484 0.672538 1.94486 0.672622 1.94489C0.672664 1.94491 0.672731 1.94493 0.672752 1.94494C0.67282 1.94496 0.672889 1.94499 1 1ZM5.00796 1.83827C5.54044 2.14531 6.11732 2.49733 6.72934 2.89828L5.63335 4.57124C5.05435 4.19192 4.50986 3.85973 4.0089 3.57087L5.00796 1.83827ZM9.18131 4.6468C9.6897 5.03977 10.211 5.46238 10.7415 5.91623L9.44137 7.43596C8.93669 7.00419 8.44107 6.60245 7.95818 6.22919L9.18131 4.6468ZM12.9548 7.9528C13.4173 8.41005 13.8827 8.89107 14.3487 9.39682L12.8777 10.7519C12.4333 10.2695 11.9896 9.81091 11.5488 9.37518L12.9548 7.9528ZM16.3092 11.6774C16.718 12.187 17.1247 12.7169 17.5277 13.2677L15.9136 14.4487C15.5283 13.922 15.1396 13.4156 14.7492 12.9289L16.3092 11.6774ZM19.2199 15.7459C19.5711 16.2976 19.9175 16.867 20.258 17.4547L18.5274 18.4572C18.201 17.8938 17.8691 17.3482 17.5327 16.8199L19.2199 15.7459ZM21.6834 20.0987C21.9758 20.6826 22.2619 21.2822 22.5408 21.8978L20.719 22.7231C20.4508 22.1312 20.1759 21.555 19.8951 20.9942L21.6834 20.0987ZM23.7001 24.6628C23.9356 25.2712 24.1639 25.8936 24.3844 26.5301L22.4946 27.1847C22.2818 26.5707 22.0617 25.9707 21.8349 25.3845L23.7001 24.6628ZM25.2896 29.3795C25.4717 30.0074 25.6462 30.6477 25.8127 31.3008L23.8747 31.7949C23.7136 31.1628 23.5447 30.5434 23.3687 29.9364L25.2896 29.3795ZM26.482 34.2087C26.6148 34.8531 26.74 35.5087 26.857 36.1759L24.8871 36.5215C24.7734 35.8736 24.652 35.2373 24.5232 34.6124L26.482 34.2087ZM27.3093 39.1165C27.3946 39.7593 27.4726 40.4119 27.5429 41.0746L25.5541 41.2857C25.4856 40.6403 25.4097 40.005 25.3267 39.3797L27.3093 39.1165ZM27.8009 44.0397C27.8457 44.695 27.8832 45.3593 27.9132 46.033L25.9151 46.1218C25.8859 45.4639 25.8493 44.8154 25.8056 44.1761L27.8009 44.0397ZM27.9945 48.9922C27.9982 49.326 28 49.6619 28 50H26C26 49.6692 25.9982 49.3405 25.9946 49.014L27.9945 48.9922ZM28 50C28 50.3483 27.9982 50.6943 27.9947 51.0382L25.9948 51.0178C25.9983 50.6807 26 50.3415 26 50H28ZM27.9164 54.0837C27.8876 54.7783 27.8514 55.4634 27.8082 56.1392L25.8123 56.0115C25.8545 55.3508 25.8899 54.6805 25.9182 54.0006L27.9164 54.0837ZM27.5596 59.1928C27.4919 59.874 27.4169 60.5451 27.3348 61.206L25.35 60.9595C25.4301 60.315 25.5033 59.6602 25.5694 58.9951L27.5596 59.1928ZM26.8974 64.2441C26.7843 64.9323 26.6634 65.6087 26.535 66.2735L24.5713 65.8943C24.6961 65.2479 24.8138 64.5898 24.9239 63.9198L26.8974 64.2441ZM25.8872 69.2763C25.7262 69.9498 25.5574 70.6102 25.3813 71.2579L23.4514 70.7332C23.6221 70.1054 23.7858 69.4649 23.942 68.8113L25.8872 69.2763ZM24.5018 74.2085C24.2877 74.8668 24.066 75.5104 23.8372 76.1399L21.9575 75.4567C22.1784 74.8488 22.3928 74.2266 22.5998 73.59L24.5018 74.2085ZM22.7042 79.0144C22.4317 79.6538 22.1521 80.2766 21.8661 80.8832L20.0571 80.0303C20.3323 79.4464 20.6017 78.8465 20.8643 78.2303L22.7042 79.0144ZM20.4626 83.6455C20.1272 84.2591 19.7857 84.8537 19.4392 85.4299L17.7253 84.3991C18.0576 83.8465 18.3854 83.2757 18.7076 82.6863L20.4626 83.6455ZM17.7582 88.0322C17.3573 88.6106 16.9525 89.1669 16.5453 89.7018L14.954 88.4903C15.3433 87.9789 15.7307 87.4466 16.1144 86.8929L17.7582 88.0322ZM14.5894 92.0957C14.1212 92.6297 13.6531 93.1373 13.1875 93.6197L11.7486 92.2307C12.1923 91.7709 12.6387 91.2868 13.0856 90.7772L14.5894 92.0957ZM10.9559 95.7674C10.4171 96.2485 9.88705 96.6961 9.36977 97.1119L8.11677 95.553C8.60777 95.1584 9.11139 94.7331 9.62385 94.2755L10.9559 95.7674ZM6.86971 98.9602C6.24529 99.3829 5.65609 99.7533 5.1117 100.076L4.0919 98.3556C4.60322 98.0525 5.15855 97.7034 5.74856 97.304L6.86971 98.9602ZM2.3279 101.534C2.01958 101.672 1.77576 101.773 1.60587 101.84C1.52091 101.874 1.45443 101.899 1.40758 101.916C1.38416 101.925 1.36564 101.931 1.35218 101.936C1.34545 101.939 1.33998 101.94 1.3358 101.942C1.33371 101.943 1.33194 101.943 1.33049 101.944C1.32976 101.944 1.32912 101.944 1.32856 101.944C1.32827 101.945 1.32801 101.945 1.32777 101.945C1.32765 101.945 1.32754 101.945 1.32743 101.945C1.32737 101.945 1.32729 101.945 1.32726 101.945C1.32719 101.945 1.32711 101.945 1 101C0.672889 100.055 0.672816 100.055 0.672743 100.055C0.67272 100.055 0.672649 100.055 0.672604 100.055C0.672514 100.055 0.672429 100.055 0.672349 100.055C0.672189 100.055 0.672049 100.055 0.671929 100.055C0.671688 100.055 0.671528 100.055 0.671448 100.056C0.671288 100.056 0.671447 100.056 0.671923 100.055C0.672874 100.055 0.675093 100.054 0.678562 100.053C0.6855 100.051 0.697435 100.046 0.714223 100.04C0.747799 100.028 0.800778 100.008 0.872001 99.9795C1.01446 99.9233 1.22983 99.8347 1.50887 99.7095L2.3279 101.534Z" fill="white"/>
</svg>
