<svg width="17" height="24" viewBox="0 0 17 24" fill="none" xmlns="http://www.w3.org/2000/svg">
<path d="M1.41439 11.5028C1.37984 11.4337 1.34528 11.3646 1.34528 11.3301C1.27617 11.0882 1.20706 10.8463 1.17251 10.639C0.965177 9.67143 0.930622 8.63479 1.13795 7.59814C1.72539 4.10809 4.66255 1.37825 8.18715 1.03271C12.9903 0.548937 16.9987 4.31542 16.9987 8.98034C16.9987 10.2934 16.6877 11.5374 16.1002 12.6432C14.5107 16.2023 10.9515 21.351 9.5348 23.3206C9.25836 23.7353 8.67092 23.7353 8.35993 23.3206C6.87407 21.2473 2.96936 15.5803 1.62172 12.0903V12.0557C1.55261 11.8829 1.44895 11.6756 1.41439 11.5028ZM9.01647 5.07563C6.83951 5.07563 5.07721 6.83793 5.07721 9.01489C5.07721 11.1919 6.83951 12.9542 9.01647 12.9542C11.1934 12.9542 12.9557 11.1919 12.9557 9.01489C12.9557 6.83793 11.1589 5.07563 9.01647 5.07563Z" fill="#D52027"/>
</svg>
