<svg width="255" height="72" viewBox="0 0 255 72" fill="none" xmlns="http://www.w3.org/2000/svg">
<path d="M14.0147 44.1108L24.6517 40.229L35.9945 46.6818V56.6635L14.0147 44.1108Z" fill="#9A1C1F"/>
<path d="M0.0504208 36.0447L8.62054 30.953L19.7617 26.8696L21.7278 27.9787L0.0504208 36.0447Z" fill="#811518"/>
<path d="M0.0504208 5.14207L8.97342 0L44.7663 20.6691L35.8433 25.8112L0.0504208 5.14207Z" fill="#9A1C1F"/>
<path d="M35.8433 25.8112V36.0953L14.0147 44.1109L35.9945 56.6636L35.9441 66.9478L0 46.3291L0.0504155 36.0449L21.7278 27.9789L0 15.4262L0.0504155 5.14209L35.8433 25.8112Z" fill="#D52027"/>
<path d="M71.4345 40.3299L62.7131 33.2721L62.6627 10.3345L71.3336 15.3757L71.4345 40.3299Z" fill="#F0EFF0"/>
<path d="M71.3336 15.3758L62.6627 10.3346L71.6361 5.14209L80.307 10.1833L71.3336 15.3758Z" fill="#D6D8D8"/>
<path d="M71.4345 56.5123L62.7635 51.4711L53.4876 43.9092V41.8423L71.4345 56.5123Z" fill="#898A8C"/>
<path d="M44.5142 30.8523L35.8433 25.811L44.7663 20.6689L53.4372 25.7102L44.5142 30.8523Z" fill="#D6D8D8"/>
<path d="M44.615 71.9888L35.9441 66.9476L35.8433 25.811L44.5142 30.8523L44.615 71.9888Z" fill="#F0EFF0"/>
<path d="M80.307 10.1831L80.4079 51.3197L71.4345 56.5121L53.4876 41.8421L53.5884 66.7963L44.615 71.9888L44.5142 30.8522L53.4372 25.7102L71.4345 40.3298L71.3336 15.3756L80.307 10.1831Z" fill="#B3B5B8"/>
<path d="M107.527 53.8468C107.527 52.0161 108.951 50.5244 110.849 50.5244C112.07 50.5244 112.815 51.0669 113.426 51.6771L112.815 52.3551C112.273 51.8127 111.731 51.4059 110.849 51.4059C109.561 51.4059 108.544 52.4907 108.544 53.9146C108.544 55.3385 109.561 56.4233 110.917 56.4233C111.731 56.4233 112.341 56.0165 112.883 55.4741L113.494 56.0843C112.815 56.8302 112.07 57.3048 110.849 57.3048C108.951 57.237 107.527 55.6775 107.527 53.8468Z" fill="#A3A5A8"/>
<path d="M117.494 50.6602H118.443V54.3894L121.969 50.6602H123.122L120.41 53.4401L123.189 57.1015H122.037L119.731 54.1859L118.375 55.6098V57.1693H117.426V50.6602H117.494Z" fill="#A3A5A8"/>
<path d="M126.986 50.6602H130.105C131.394 50.6602 132.207 51.2704 132.207 52.2874C132.207 53.1011 131.665 53.5079 131.122 53.7791C131.868 53.9825 132.546 54.4572 132.546 55.3386C132.546 56.4235 131.597 57.1015 130.241 57.1015H127.054V50.6602H126.986ZM129.902 53.3723C130.648 53.3723 131.19 53.0333 131.19 52.3552C131.19 51.8128 130.716 51.4738 129.902 51.4738H127.936V53.4401H129.902V53.3723ZM130.105 56.2201C131.055 56.2201 131.597 55.8132 131.597 55.1352C131.597 54.525 131.055 54.1182 129.97 54.1182H127.936V56.2201H130.105Z" fill="#A3A5A8"/>
<path d="M136.343 53.8468C136.343 52.0161 137.767 50.5244 139.666 50.5244C141.564 50.5244 142.988 52.0161 142.988 53.8468C142.988 55.6775 141.564 57.1692 139.598 57.1692C137.767 57.237 136.343 55.6775 136.343 53.8468ZM142.107 53.8468C142.107 52.4907 141.09 51.3381 139.734 51.3381C138.31 51.3381 137.36 52.4907 137.36 53.8468C137.36 55.2029 138.377 56.3555 139.734 56.3555C141.09 56.3555 142.107 55.2707 142.107 53.8468Z" fill="#A3A5A8"/>
<path d="M146.378 56.2877L146.853 55.6097C147.531 56.1521 148.209 56.4233 149.023 56.4233C149.836 56.4233 150.582 56.0165 150.582 55.2707C150.582 54.5926 150.04 54.1858 148.955 54.1858H148.073V53.3722H148.955C149.769 53.3722 150.379 52.9654 150.379 52.2873C150.379 51.6771 149.769 51.3381 148.955 51.3381C148.345 51.3381 147.599 51.5415 146.989 52.0161L146.514 51.3381C147.192 50.7956 148.073 50.5244 149.023 50.5244C150.447 50.5244 151.328 51.2703 151.328 52.2195C151.328 53.0332 150.853 53.44 150.311 53.7112C150.989 53.9824 151.531 54.457 151.531 55.2707C151.531 56.2877 150.582 57.237 148.955 57.237C148.006 57.237 147.192 56.898 146.378 56.2877Z" fill="#A3A5A8"/>
<path d="M155.871 50.6602H156.82V53.1011H158.515C159.939 53.1011 161.024 53.6435 161.024 54.9996C161.024 56.2879 160.075 57.1015 158.583 57.1015H155.803V50.6602H155.871ZM158.515 56.2201C159.464 56.2201 160.075 55.8132 160.075 54.9996C160.075 54.2538 159.464 53.8469 158.515 53.8469H156.82V56.2201H158.515Z" fill="#A3A5A8"/>
<path d="M171.195 50.6602H174.314C175.602 50.6602 176.415 51.2704 176.415 52.2874C176.415 53.1011 175.873 53.5079 175.331 53.7791C176.076 53.9825 176.754 54.4572 176.754 55.3386C176.754 56.4235 175.805 57.1015 174.449 57.1015H171.262V50.6602H171.195ZM174.178 53.3723C174.924 53.3723 175.466 53.0333 175.466 52.3552C175.466 51.8128 174.992 51.4738 174.178 51.4738H172.212V53.4401H174.178V53.3723ZM174.314 56.2201C175.263 56.2201 175.805 55.8132 175.805 55.1352C175.805 54.525 175.263 54.1182 174.178 54.1182H172.144V56.2201H174.314Z" fill="#A3A5A8"/>
<path d="M180.958 50.66H181.908V51.9483C182.45 51.2025 183.196 50.5244 184.348 50.5244C185.908 50.5244 187.4 51.7449 187.4 53.8468C187.4 55.9487 185.908 57.1692 184.348 57.1692C183.128 57.1692 182.382 56.4912 181.908 55.8131V58.9999H180.958V50.66ZM186.45 53.8468C186.45 52.3551 185.433 51.3381 184.213 51.3381C182.992 51.3381 181.908 52.3551 181.908 53.8468C181.908 55.3385 183.06 56.3555 184.213 56.3555C185.433 56.3555 186.45 55.4063 186.45 53.8468Z" fill="#A3A5A8"/>
<path d="M191.332 53.8468C191.332 52.0161 192.62 50.5244 194.383 50.5244C196.282 50.5244 197.367 52.0161 197.367 53.9146C197.367 53.9824 197.367 54.118 197.367 54.2536H192.281C192.417 55.6097 193.434 56.3555 194.519 56.3555C195.4 56.3555 196.011 56.0165 196.553 55.4741L197.163 56.0165C196.485 56.7624 195.739 57.237 194.519 57.237C192.756 57.237 191.332 55.8809 191.332 53.8468ZM196.417 53.5078C196.282 52.3551 195.604 51.3381 194.383 51.3381C193.299 51.3381 192.417 52.2873 192.281 53.5078H196.417Z" fill="#A3A5A8"/>
<path d="M201.503 50.6602H202.384L204.757 54.0503L207.13 50.6602H208.08V57.1015H207.13V52.2196L204.757 55.4742L202.384 52.2196V57.1015H201.503V50.6602Z" fill="#A3A5A8"/>
<path d="M214.182 54.5928C213.233 54.3894 212.487 53.7113 212.487 52.6265C212.487 51.4738 213.368 50.6602 214.928 50.6602H217.911V57.1015H216.962V54.7962H215.199C214.589 55.6098 214.046 56.3557 213.436 57.1015H212.284L214.182 54.5928ZM216.894 53.9147V51.4738H214.86C213.911 51.4738 213.368 51.9484 213.368 52.6943C213.368 53.5079 214.046 53.9147 214.928 53.9147H216.894Z" fill="#A3A5A8"/>
<path d="M106.849 17.1006H137.835V19.3381L117.155 34.7974H137.835V39.2046H106.849V36.9671L127.461 21.5078H106.849V17.1006Z" fill="white"/>
<path d="M142.242 17.1006H146.65L168.754 33.7125V17.1006H173.161V39.2046H168.754L146.65 22.6605V39.2724H142.242V17.1006Z" fill="white"/>
<path d="M177.636 34.7974H184.281V39.2046H177.636V34.7974Z" fill="white"/>
<path d="M193.095 39.2725H188.688V17.1685H219.674V30.458H215.267L219.674 39.2725H214.725L210.317 30.458H193.163V39.2725H193.095ZM193.095 25.9829H215.199V21.5757H193.095V25.9829Z" fill="white"/>
<path d="M224.081 17.1006H228.489V34.7974H250.593V17.1006H255V39.2046H224.014V17.1006H224.081Z" fill="white"/>
</svg>
