<svg width="255" height="72" viewBox="0 0 255 72" fill="none" xmlns="http://www.w3.org/2000/svg">
<path d="M14.0147 44.1109L24.6517 40.2292L35.9945 46.6819V56.6636L14.0147 44.1109Z" fill="#9A1C1F"/>
<path d="M0.0504208 36.0449L8.62054 30.9533L19.7617 26.8699L21.7278 27.9789L0.0504208 36.0449Z" fill="#811518"/>
<path d="M0.0504208 5.14207L8.97342 0L44.7663 20.6691L35.8433 25.8112L0.0504208 5.14207Z" fill="#9A1C1F"/>
<path d="M35.8433 25.8112V36.0953L14.0147 44.1109L35.9945 56.6636L35.9441 66.9478L0 46.3291L0.0504155 36.0449L21.7278 27.9789L0 15.4262L0.0504155 5.14209L35.8433 25.8112Z" fill="#D52027"/>
<path d="M71.4345 40.33L62.7131 33.2722L62.6627 10.3345L71.3336 15.3758L71.4345 40.33Z" fill="#F0EFF0"/>
<path d="M71.3336 15.3758L62.6627 10.3346L71.6361 5.14209L80.307 10.1833L71.3336 15.3758Z" fill="#D6D8D8"/>
<path d="M71.4345 56.5124L62.7635 51.4711L53.4876 43.9092V41.8423L71.4345 56.5124Z" fill="#898A8C"/>
<path d="M44.5142 30.8524L35.8433 25.8112L44.7663 20.6691L53.4372 25.7104L44.5142 30.8524Z" fill="#D6D8D8"/>
<path d="M44.615 71.989L35.9441 66.9477L35.8433 25.8112L44.5142 30.8524L44.615 71.989Z" fill="#F0EFF0"/>
<path d="M80.307 10.1833L80.4079 51.3199L71.4345 56.5123L53.4876 41.8423L53.5884 66.7965L44.615 71.989L44.5142 30.8524L53.4372 25.7104L71.4345 40.33L71.3336 15.3758L80.307 10.1833Z" fill="#B3B5B8"/>
<path d="M107.527 53.8469C107.527 52.0162 108.951 50.5245 110.849 50.5245C112.07 50.5245 112.815 51.067 113.426 51.6772L112.815 52.3552C112.273 51.8128 111.731 51.406 110.849 51.406C109.561 51.406 108.544 52.4908 108.544 53.9147C108.544 55.3386 109.561 56.4235 110.917 56.4235C111.731 56.4235 112.341 56.0166 112.883 55.4742L113.494 56.0844C112.815 56.8303 112.07 57.3049 110.849 57.3049C108.951 57.2371 107.527 55.6776 107.527 53.8469Z" fill="#A3A5A8"/>
<path d="M117.494 50.6602H118.443V54.3894L121.969 50.6602H123.122L120.41 53.4401L123.189 57.1015H122.037L119.731 54.1859L118.375 55.6098V57.1693H117.426V50.6602H117.494Z" fill="#A3A5A8"/>
<path d="M126.986 50.6602H130.105C131.394 50.6602 132.207 51.2704 132.207 52.2874C132.207 53.1011 131.665 53.5079 131.122 53.7791C131.868 53.9825 132.546 54.4572 132.546 55.3386C132.546 56.4235 131.597 57.1015 130.241 57.1015H127.054V50.6602H126.986ZM129.902 53.3723C130.648 53.3723 131.19 53.0333 131.19 52.3552C131.19 51.8128 130.716 51.4738 129.902 51.4738H127.936V53.4401H129.902V53.3723ZM130.105 56.2201C131.055 56.2201 131.597 55.8132 131.597 55.1352C131.597 54.525 131.055 54.1182 129.97 54.1182H127.936V56.2201H130.105Z" fill="#A3A5A8"/>
<path d="M136.343 53.8469C136.343 52.0162 137.767 50.5245 139.666 50.5245C141.564 50.5245 142.988 52.0162 142.988 53.8469C142.988 55.6776 141.564 57.1693 139.598 57.1693C137.767 57.2371 136.343 55.6776 136.343 53.8469ZM142.107 53.8469C142.107 52.4908 141.09 51.3382 139.734 51.3382C138.31 51.3382 137.36 52.4908 137.36 53.8469C137.36 55.203 138.377 56.3556 139.734 56.3556C141.09 56.3556 142.107 55.2708 142.107 53.8469Z" fill="#A3A5A8"/>
<path d="M146.378 56.2878L146.853 55.6098C147.531 56.1522 148.209 56.4235 149.023 56.4235C149.836 56.4235 150.582 56.0166 150.582 55.2708C150.582 54.5927 150.04 54.1859 148.955 54.1859H148.073V53.3723H148.955C149.769 53.3723 150.379 52.9655 150.379 52.2874C150.379 51.6772 149.769 51.3382 148.955 51.3382C148.345 51.3382 147.599 51.5416 146.989 52.0162L146.514 51.3382C147.192 50.7957 148.073 50.5245 149.023 50.5245C150.447 50.5245 151.328 51.2704 151.328 52.2196C151.328 53.0333 150.853 53.4401 150.311 53.7113C150.989 53.9825 151.531 54.4571 151.531 55.2708C151.531 56.2878 150.582 57.2371 148.955 57.2371C148.006 57.2371 147.192 56.8981 146.378 56.2878Z" fill="#A3A5A8"/>
<path d="M155.871 50.6602H156.82V53.1011H158.515C159.939 53.1011 161.024 53.6435 161.024 54.9996C161.024 56.2879 160.075 57.1015 158.583 57.1015H155.803V50.6602H155.871ZM158.515 56.2201C159.464 56.2201 160.075 55.8132 160.075 54.9996C160.075 54.2538 159.464 53.8469 158.515 53.8469H156.82V56.2201H158.515Z" fill="#A3A5A8"/>
<path d="M171.195 50.6602H174.314C175.602 50.6602 176.415 51.2704 176.415 52.2874C176.415 53.1011 175.873 53.5079 175.331 53.7791C176.076 53.9825 176.754 54.4572 176.754 55.3386C176.754 56.4235 175.805 57.1015 174.449 57.1015H171.262V50.6602H171.195ZM174.178 53.3723C174.924 53.3723 175.466 53.0333 175.466 52.3552C175.466 51.8128 174.992 51.4738 174.178 51.4738H172.212V53.4401H174.178V53.3723ZM174.314 56.2201C175.263 56.2201 175.805 55.8132 175.805 55.1352C175.805 54.525 175.263 54.1182 174.178 54.1182H172.144V56.2201H174.314Z" fill="#A3A5A8"/>
<path d="M180.958 50.6601H181.908V51.9484C182.45 51.2026 183.196 50.5245 184.348 50.5245C185.908 50.5245 187.4 51.745 187.4 53.8469C187.4 55.9488 185.908 57.1693 184.348 57.1693C183.128 57.1693 182.382 56.4913 181.908 55.8132V59H180.958V50.6601ZM186.45 53.8469C186.45 52.3552 185.433 51.3382 184.213 51.3382C182.992 51.3382 181.908 52.3552 181.908 53.8469C181.908 55.3386 183.06 56.3556 184.213 56.3556C185.433 56.3556 186.45 55.4064 186.45 53.8469Z" fill="#A3A5A8"/>
<path d="M191.332 53.8469C191.332 52.0162 192.62 50.5245 194.383 50.5245C196.282 50.5245 197.367 52.0162 197.367 53.9147C197.367 53.9825 197.367 54.1181 197.367 54.2537H192.281C192.417 55.6098 193.434 56.3556 194.519 56.3556C195.4 56.3556 196.011 56.0166 196.553 55.4742L197.163 56.0166C196.485 56.7625 195.739 57.2371 194.519 57.2371C192.756 57.2371 191.332 55.881 191.332 53.8469ZM196.417 53.5079C196.282 52.3552 195.604 51.3382 194.383 51.3382C193.299 51.3382 192.417 52.2874 192.281 53.5079H196.417Z" fill="#A3A5A8"/>
<path d="M201.503 50.6602H202.384L204.757 54.0503L207.13 50.6602H208.08V57.1015H207.13V52.2196L204.757 55.4742L202.384 52.2196V57.1015H201.503V50.6602Z" fill="#A3A5A8"/>
<path d="M214.182 54.5928C213.233 54.3894 212.487 53.7113 212.487 52.6265C212.487 51.4738 213.368 50.6602 214.928 50.6602H217.911V57.1015H216.962V54.7962H215.199C214.589 55.6098 214.046 56.3557 213.436 57.1015H212.284L214.182 54.5928ZM216.894 53.9147V51.4738H214.86C213.911 51.4738 213.368 51.9484 213.368 52.6943C213.368 53.5079 214.046 53.9147 214.928 53.9147H216.894Z" fill="#A3A5A8"/>
<path d="M106.849 17.1007H137.835V19.3382L117.155 34.7975H137.835V39.2047H106.849V36.9672L127.461 21.5079H106.849V17.1007Z" fill="#010101"/>
<path d="M142.242 17.1007H146.65L168.754 33.7126V17.1007H173.161V39.2047H168.754L146.65 22.6606V39.2725H142.242V17.1007Z" fill="#010101"/>
<path d="M177.636 34.7975H184.281V39.2047H177.636V34.7975Z" fill="#010101"/>
<path d="M193.095 39.2725H188.688V17.1685H219.674V30.458H215.267L219.674 39.2725H214.725L210.317 30.458H193.163V39.2725H193.095ZM193.095 25.9829H215.199V21.5757H193.095V25.9829Z" fill="#010101"/>
<path d="M224.081 17.1007H228.489V34.7975H250.593V17.1007H255V39.2047H224.014V17.1007H224.081Z" fill="#010101"/>
</svg>
