<svg width="20" height="20" viewBox="0 0 20 20" fill="none" xmlns="http://www.w3.org/2000/svg">
<path d="M19.9816 16.981C19.9816 19.5182 19.1711 20.223 16.7044 19.8706C8.17669 18.6372 2.08044 12.4 1.02329 3.90756C0.776622 1.96945 1.62234 1.01801 3.5957 0.982775C4.86428 0.982775 6.45001 0.771344 6.80239 2.35707C7.19002 4.08376 8.07098 6.02187 6.34429 7.67808C4.61761 9.33428 4.65285 9.40476 6.06239 11.3429C7.36621 13.14 9.02242 14.5848 10.9253 15.7477C11.4891 16.1001 12.1586 16.1705 12.8986 15.1134C14.0615 13.4572 16.1053 13.6686 18.3254 14.021C19.5939 14.2677 19.9816 15.0781 19.9816 16.981Z" fill="#D52027"/>
<path d="M18.854 10.1095C18.3254 10.1095 17.8673 9.68669 17.8673 9.15811V8.98192C17.6559 5.63427 14.7311 3.06186 11.3834 3.20281C10.8196 3.23805 10.3615 2.81519 10.3263 2.25138C10.291 1.68756 10.7139 1.22946 11.2777 1.19422C15.6825 0.982793 19.5235 4.40092 19.8406 8.84096C19.8406 8.91144 19.8406 8.94668 19.8406 9.01716V9.08763C19.8759 9.65145 19.4178 10.1095 18.8892 10.1095C18.854 10.1095 18.854 10.1095 18.854 10.1095Z" fill="#D52027"/>
<path d="M14.9777 10.4619C14.4844 10.4619 14.0615 10.1095 13.9911 9.6162C13.7796 8.20666 12.6168 7.11427 11.2072 6.97332C10.6434 6.90284 10.2558 6.44474 10.3263 5.88093C10.3967 5.31711 10.8548 4.92949 11.4186 4.99996C13.7444 5.24663 15.612 7.00856 15.9644 9.33429C16.0349 9.86287 15.6825 10.3914 15.1187 10.4619C15.0834 10.4619 15.0482 10.4619 14.9777 10.4619Z" fill="#D52027"/>
</svg>
