<svg width="52" height="70" viewBox="0 0 52 70" fill="none" xmlns="http://www.w3.org/2000/svg">
<path d="M28.3094 1.96411L1.96408 18.556V55.3273L5.77574 63.6233L21.1345 68.556L37.6143 64.6323L43.1076 61.3811L50.0583 52.3228V22.0314L43.556 9.81164L28.3094 1.96411Z" stroke="white" stroke-width="2" stroke-miterlimit="10" stroke-linecap="round" stroke-linejoin="round"/>
<path d="M2.12106 26.5157L8.91478 22.7042L9.87891 13.5565" stroke="white" stroke-width="2" stroke-miterlimit="10" stroke-linecap="round" stroke-linejoin="round"/>
<path d="M43.556 9.81152L41.9865 16.4257L29.3184 24.273L18.8924 26.5151L9.00449 22.5466" stroke="white" stroke-width="2" stroke-miterlimit="10" stroke-linecap="round" stroke-linejoin="round"/>
<path d="M11.6054 65.4839L17.2108 62.9503L18.556 59.3629L18.8924 26.516" stroke="white" stroke-width="2" stroke-miterlimit="10" stroke-linecap="round" stroke-linejoin="round"/>
<path d="M1.96408 55.3274L8.24211 59.1391L18.556 59.3633L24.9462 57.1211L30.2152 54.9911L32.5695 50.9552V28.3094L29.0717 24.3184" stroke="white" stroke-width="2" stroke-miterlimit="10" stroke-linecap="round" stroke-linejoin="round"/>
<path d="M46.9193 16.538L41.9866 16.4259L32.5695 28.3099" stroke="white" stroke-width="2" stroke-miterlimit="10" stroke-linecap="round" stroke-linejoin="round"/>
<path d="M32.5695 50.9552L40.417 54.5426L50.0583 52.3229" stroke="white" stroke-width="2" stroke-miterlimit="10" stroke-linecap="round" stroke-linejoin="round"/>
<path d="M43.1076 61.3813L40.4171 54.5426L25.0583 63.3993L18.5561 59.6997" stroke="white" stroke-width="2" stroke-miterlimit="10" stroke-linecap="round" stroke-linejoin="round"/>
<path d="M21.1345 68.556L25.3946 63.1973" stroke="white" stroke-width="2" stroke-miterlimit="10" stroke-linecap="round" stroke-linejoin="round"/>
<path d="M32.5695 59.3628L37.6144 64.632" stroke="white" stroke-width="2" stroke-miterlimit="10" stroke-linecap="round" stroke-linejoin="round"/>
</svg>
