<svg width="62" height="63" viewBox="0 0 62 63" fill="none" xmlns="http://www.w3.org/2000/svg">
<path d="M53.2487 57.3733H8.50256" stroke="white" stroke-width="2" stroke-miterlimit="10" stroke-linecap="round" stroke-linejoin="round"/>
<path d="M57.456 8.85486V53.5802" stroke="white" stroke-width="2" stroke-miterlimit="10" stroke-linecap="round" stroke-linejoin="round"/>
<path d="M8.64771 4.83435H53.373" stroke="white" stroke-width="2" stroke-miterlimit="10" stroke-linecap="round" stroke-linejoin="round"/>
<path d="M4.50256 53.3314V8.58533" stroke="white" stroke-width="2" stroke-miterlimit="10" stroke-linecap="round" stroke-linejoin="round"/>
<path d="M8.6062 0.999878H1.02081V8.58557H8.6062V0.999878Z" stroke="white" stroke-width="2" stroke-miterlimit="10" stroke-linecap="round" stroke-linejoin="round"/>
<path d="M61.0001 0.999878H53.4146V8.58557H61.0001V0.999878Z" stroke="white" stroke-width="2" stroke-miterlimit="10" stroke-linecap="round" stroke-linejoin="round"/>
<path d="M8.58545 53.5801H1V61.1658H8.58545V53.5801Z" stroke="white" stroke-width="2" stroke-miterlimit="10" stroke-linecap="round" stroke-linejoin="round"/>
<path d="M60.9586 53.5801H53.373V61.1658H60.9586V53.5801Z" stroke="white" stroke-width="2" stroke-miterlimit="10" stroke-linecap="round" stroke-linejoin="round"/>
<path d="M46.1606 15.985V42.286H12.5648" stroke="white" stroke-width="2" stroke-miterlimit="10" stroke-linecap="round" stroke-linejoin="round"/>
<path d="M47.4664 45.9948H14.969C13.6425 45.9948 12.5648 44.917 12.5648 43.5906V18.4095C12.5648 17.0831 13.6425 16.0054 14.969 16.0054H47.4664C48.7928 16.0054 49.8705 17.0831 49.8705 18.4095V43.5906C49.8912 44.917 48.8135 45.9948 47.4664 45.9948Z" stroke="white" stroke-width="2" stroke-miterlimit="10" stroke-linecap="round" stroke-linejoin="round"/>
<path d="M49.3109 45.4143L46.1606 42.2845" stroke="white" stroke-width="2" stroke-miterlimit="10" stroke-linecap="round" stroke-linejoin="round"/>
</svg>
