<svg width="82" height="70" viewBox="0 0 82 70" fill="none" xmlns="http://www.w3.org/2000/svg">
<path d="M32.7697 61.2291L0.999969 43.5037" stroke="white" stroke-width="2" stroke-miterlimit="10" stroke-linecap="round" stroke-linejoin="round"/>
<path d="M81 2.81519H72.6681C69.7327 2.81519 67.0457 4.41835 65.6683 7.01501L41.8241 51.5874" stroke="white" stroke-width="2" stroke-miterlimit="10" stroke-linecap="round" stroke-linejoin="round"/>
<path d="M41.3048 62.7643C42.7389 62.7643 43.9015 61.6017 43.9015 60.1675C43.9015 58.7333 42.7389 57.5707 41.3048 57.5707C39.8707 57.5707 38.7081 58.7333 38.7081 60.1675C38.7081 61.6017 39.8707 62.7643 41.3048 62.7643Z" stroke="white" stroke-width="2" stroke-miterlimit="10" stroke-linecap="round" stroke-linejoin="round"/>
<path d="M41.3048 68.5215C45.9189 68.5215 49.6593 64.7811 49.6593 60.1672C49.6593 55.5532 45.9189 51.8129 41.3048 51.8129C36.6908 51.8129 32.9503 55.5532 32.9503 60.1672C32.9503 64.7811 36.6908 68.5215 41.3048 68.5215Z" stroke="white" stroke-width="2" stroke-miterlimit="10" stroke-linecap="round" stroke-linejoin="round"/>
<path d="M49.5464 37.1587V61.0704" stroke="white" stroke-width="2" stroke-miterlimit="10" stroke-linecap="round" stroke-linejoin="round"/>
<path d="M57.4833 13.5665L34.5521 1.00012L11.3509 43.3377L34.2821 55.9041L57.4833 13.5665Z" stroke="white" stroke-width="2" stroke-miterlimit="10" stroke-linecap="round" stroke-linejoin="round"/>
<path d="M45.911 34.6744L23.1056 22.0752" stroke="white" stroke-width="2" stroke-miterlimit="10" stroke-linecap="round" stroke-linejoin="round"/>
<path d="M45.753 15.7074L40.5597 12.7044C39.7017 12.2076 39.4081 11.1013 39.9049 10.2433L42.7499 5.32104L51.0593 10.1304L48.2142 15.0526C47.7175 15.9106 46.6111 16.2041 45.753 15.7074Z" stroke="white" stroke-width="2" stroke-miterlimit="10" stroke-linecap="round" stroke-linejoin="round"/>
<path d="M33.3567 36.4135L28.1634 33.4105C27.3054 32.9138 27.0118 31.8074 27.5086 30.9494L30.3536 26.0272L38.663 30.8139L35.8179 35.7362C35.3212 36.6167 34.2148 36.9103 33.3567 36.4135Z" stroke="white" stroke-width="2" stroke-miterlimit="10" stroke-linecap="round" stroke-linejoin="round"/>
</svg>
